<?xml version="1.0" encoding="UTF-8"?>
<!DOCTYPE svg PUBLIC "-//W3C//DTD SVG 1.1//EN" "http://www.w3.org/Graphics/SVG/1.1/DTD/svg11.dtd">
<svg xmlns="http://www.w3.org/2000/svg" version="1.1" width="1920px" height="1080px" style="shape-rendering:geometricPrecision; text-rendering:geometricPrecision; image-rendering:optimizeQuality; fill-rule:evenodd; clip-rule:evenodd" xmlns:xlink="http://www.w3.org/1999/xlink">
<g><path style="opacity:0.914" fill="#000000" d="M 318.5,438.5 C 333.098,440.068 347.765,440.735 362.5,440.5C 373.833,440.333 385.167,440.167 396.5,440C 398.101,439.727 399.601,439.227 401,438.5C 401.167,439.167 401.333,439.833 401.5,440.5C 383.563,473.538 365.23,506.372 346.5,539C 358.5,539.667 370.5,539.667 382.5,539C 388.896,537.38 394.062,533.88 398,528.5C 400.182,524.136 402.349,519.802 404.5,515.5C 404.487,525.595 403.153,535.595 400.5,545.5C 372.5,546.833 344.5,546.833 316.5,545.5C 334.5,513.5 352.5,481.5 370.5,449.5C 357.179,448.334 343.846,448.167 330.5,449C 323.487,452.208 320.487,457.708 321.5,465.5C 320.5,465.5 319.5,465.5 318.5,465.5C 318.5,456.5 318.5,447.5 318.5,438.5 Z"/></g>
<g><path style="opacity:0.931" fill="#000000" d="M 768.5,451.5 C 769.496,451.414 770.329,451.748 771,452.5C 784.667,481.167 798.333,509.833 812,538.5C 815.121,541.979 818.955,544.312 823.5,545.5C 808.5,546.833 793.5,546.833 778.5,545.5C 780.5,544.667 782.5,543.833 784.5,543C 785.097,541.938 785.43,540.772 785.5,539.5C 783.898,534.364 781.898,529.364 779.5,524.5C 768.939,523.181 758.439,523.181 748,524.5C 745.687,529.624 743.52,534.791 741.5,540C 743.038,542.778 745.371,544.611 748.5,545.5C 726.5,546.833 704.5,546.833 682.5,545.5C 686.597,545.134 688.93,542.968 689.5,539C 687.788,525.337 685.621,511.837 683,498.5C 674.082,512.667 665.415,527 657,541.5C 655.921,544.063 655.421,546.729 655.5,549.5C 654.178,549.67 653.011,549.337 652,548.5C 641.248,531.994 630.248,515.661 619,499.5C 616.756,513.777 615.423,528.11 615,542.5C 616.916,543.928 619.083,544.928 621.5,545.5C 613.333,545.833 605.167,546.167 597,546.5C 574.43,551.878 558.43,544.212 549,523.5C 546.667,518.167 544.333,512.833 542,507.5C 540.429,505.077 538.263,503.744 535.5,503.5C 535.5,502.5 535.5,501.5 535.5,500.5C 543.663,501.836 549.497,498.836 553,491.5C 559.04,471.89 551.873,462.557 531.5,463.5C 531.333,488.836 531.5,514.169 532,539.5C 534.234,542.887 537.4,544.887 541.5,545.5C 527.5,546.833 513.5,546.833 499.5,545.5C 502.872,544.731 505.705,543.065 508,540.5C 508.667,514.5 508.667,488.5 508,462.5C 505.975,459.461 503.141,457.795 499.5,457.5C 509,457.167 518.5,456.833 528,456.5C 539.213,456.392 550.38,456.892 561.5,458C 577.323,464.15 582.49,475.316 577,491.5C 573.715,498.744 568.215,503.578 560.5,506C 564.241,507.738 567.408,510.238 570,513.5C 575.73,523.794 582.564,533.294 590.5,542C 597.563,545.722 602.063,543.555 604,535.5C 607.603,508.781 611.436,482.114 615.5,455.5C 616,455.167 616.5,454.833 617,454.5C 631.485,474.791 645.485,495.458 659,516.5C 672.166,496.838 684.833,476.838 697,456.5C 698.11,454.963 699.61,454.297 701.5,454.5C 705.005,481.87 708.839,509.203 713,536.5C 716.739,545.631 722.072,546.631 729,539.5C 743.556,510.726 756.723,481.393 768.5,451.5 Z M 763.5,487.5 C 767.929,496.865 772.263,506.365 776.5,516C 768.167,516.667 759.833,516.667 751.5,516C 755.917,506.667 759.917,497.167 763.5,487.5 Z"/></g>
<g><path style="opacity:0.945" fill="#000000" d="M 481.5,453.5 C 482.825,457.276 483.491,461.443 483.5,466C 483.167,470.167 482.833,474.333 482.5,478.5C 481.019,475.322 479.852,471.988 479,468.5C 477.457,466.622 475.624,465.122 473.5,464C 464.552,462.693 455.552,462.193 446.5,462.5C 446.5,474.5 446.5,486.5 446.5,498.5C 453.175,498.666 459.842,498.5 466.5,498C 471.564,495.42 474.564,491.253 475.5,485.5C 476.833,496.5 476.833,507.5 475.5,518.5C 474.536,514.093 472.536,510.26 469.5,507C 461.92,505.604 454.253,505.104 446.5,505.5C 446.5,517.167 446.5,528.833 446.5,540.5C 454.547,540.723 462.547,540.223 470.5,539C 480.26,535.41 486.26,528.576 488.5,518.5C 489.5,518.5 490.5,518.5 491.5,518.5C 489.889,527.775 487.889,536.942 485.5,546C 461.826,546.833 438.16,546.666 414.5,545.5C 418.86,544.741 422.027,542.408 424,538.5C 424.667,513.833 424.667,489.167 424,464.5C 422.121,460.458 418.954,458.125 414.5,457.5C 432.157,456.667 449.824,456.167 467.5,456C 472.434,455.884 477.1,455.051 481.5,453.5 Z"/></g>
<g><path style="opacity:0.939" fill="#000000" d="M 811.5,453.5 C 813.854,453.838 816.187,454.338 818.5,455C 843.167,455.667 867.833,455.667 892.5,455C 894.556,454.689 896.556,454.189 898.5,453.5C 899.498,461.807 899.831,470.14 899.5,478.5C 898.5,478.5 897.5,478.5 896.5,478.5C 897.686,469.857 894.019,464.69 885.5,463C 879.175,462.5 872.842,462.334 866.5,462.5C 866.333,487.836 866.5,513.169 867,538.5C 868.879,542.542 872.046,544.875 876.5,545.5C 862.5,546.833 848.5,546.833 834.5,545.5C 839.377,544.784 842.544,542.117 844,537.5C 844.5,512.502 844.667,487.502 844.5,462.5C 838.158,462.334 831.825,462.5 825.5,463C 817.002,464.673 813.336,469.84 814.5,478.5C 813.5,478.5 812.5,478.5 811.5,478.5C 811.5,470.167 811.5,461.833 811.5,453.5 Z"/></g>
<g><path style="opacity:0.939" fill="#000000" d="M 904.5,453.5 C 906.854,453.838 909.187,454.338 911.5,455C 936.167,455.667 960.833,455.667 985.5,455C 987.556,454.689 989.556,454.189 991.5,453.5C 992.498,461.807 992.831,470.14 992.5,478.5C 991.5,478.5 990.5,478.5 989.5,478.5C 990.686,469.857 987.019,464.69 978.5,463C 972.175,462.5 965.842,462.334 959.5,462.5C 959.333,487.836 959.5,513.169 960,538.5C 961.879,542.542 965.046,544.875 969.5,545.5C 955.5,546.833 941.5,546.833 927.5,545.5C 932.377,544.784 935.544,542.117 937,537.5C 937.5,512.502 937.667,487.502 937.5,462.5C 931.158,462.334 924.825,462.5 918.5,463C 910.002,464.673 906.336,469.84 907.5,478.5C 906.5,478.5 905.5,478.5 904.5,478.5C 904.5,470.167 904.5,461.833 904.5,453.5 Z"/></g>
<g><path style="opacity:0.94" fill="#000000" d="M 1420.5,453.5 C 1421.82,457.276 1422.49,461.443 1422.5,466C 1422.17,470.167 1421.83,474.333 1421.5,478.5C 1420.02,475.322 1418.85,471.988 1418,468.5C 1416.46,466.622 1414.62,465.122 1412.5,464C 1403.55,462.693 1394.55,462.193 1385.5,462.5C 1385.5,474.5 1385.5,486.5 1385.5,498.5C 1392.17,498.666 1398.84,498.5 1405.5,498C 1410.56,495.42 1413.56,491.253 1414.5,485.5C 1415.83,496.5 1415.83,507.5 1414.5,518.5C 1413.54,514.093 1411.54,510.26 1408.5,507C 1400.92,505.604 1393.25,505.104 1385.5,505.5C 1385.5,517.167 1385.5,528.833 1385.5,540.5C 1393.55,540.723 1401.55,540.223 1409.5,539C 1419.26,535.41 1425.26,528.576 1427.5,518.5C 1428.5,518.5 1429.5,518.5 1430.5,518.5C 1428.89,527.775 1426.89,536.942 1424.5,546C 1392.5,546.667 1360.5,546.667 1328.5,546C 1322.16,544.745 1316.99,541.579 1313,536.5C 1306.69,527.556 1301.69,517.889 1298,507.5C 1296.43,505.077 1294.26,503.744 1291.5,503.5C 1291.5,502.5 1291.5,501.5 1291.5,500.5C 1299.66,501.836 1305.5,498.836 1309,491.5C 1315.04,471.89 1307.87,462.557 1287.5,463.5C 1287.33,488.836 1287.5,514.169 1288,539.5C 1290.23,542.887 1293.4,544.887 1297.5,545.5C 1283.5,546.833 1269.5,546.833 1255.5,545.5C 1258.87,544.731 1261.71,543.065 1264,540.5C 1264.67,514.5 1264.67,488.5 1264,462.5C 1261.97,459.461 1259.14,457.795 1255.5,457.5C 1265,457.167 1274.5,456.833 1284,456.5C 1295.21,456.392 1306.38,456.892 1317.5,458C 1333.32,464.15 1338.49,475.316 1333,491.5C 1329.72,498.744 1324.22,503.578 1316.5,506C 1320.24,507.738 1323.41,510.238 1326,513.5C 1331.73,523.794 1338.56,533.294 1346.5,542C 1353.26,546.183 1358.76,545.017 1363,538.5C 1363.67,513.833 1363.67,489.167 1363,464.5C 1361.12,460.458 1357.95,458.125 1353.5,457.5C 1371.16,456.667 1388.82,456.167 1406.5,456C 1411.43,455.884 1416.1,455.051 1420.5,453.5 Z"/></g>
<g><path style="opacity:0.924" fill="#000000" d="M 1445.5,453.5 C 1447.6,454.412 1449.6,455.579 1451.5,457C 1472.57,475.951 1493.74,494.784 1515,513.5C 1515.67,496.833 1515.67,480.167 1515,463.5C 1512.68,459.585 1509.18,457.585 1504.5,457.5C 1518.83,456.167 1533.17,456.167 1547.5,457.5C 1543.7,457.985 1540.53,459.652 1538,462.5C 1537.2,491.19 1537.37,519.857 1538.5,548.5C 1536.22,548.392 1534.22,547.559 1532.5,546C 1511.43,527.049 1490.26,508.216 1469,489.5C 1468.33,506.167 1468.33,522.833 1469,539.5C 1471.07,543.125 1474.24,545.125 1478.5,545.5C 1464.5,546.833 1450.5,546.833 1436.5,545.5C 1440.3,545.015 1443.47,543.348 1446,540.5C 1446.78,511.484 1446.62,482.484 1445.5,453.5 Z"/></g>
<g><path style="opacity:0.932" fill="#000000" d="M 1035.5,456.5 C 1048.85,456.167 1062.18,456.501 1075.5,457.5C 1071.77,457.79 1068.93,459.457 1067,462.5C 1066.07,483.204 1066.41,503.871 1068,524.5C 1072.83,538.669 1082.66,544.169 1097.5,541C 1106.51,537.985 1112.01,531.818 1114,522.5C 1114.67,502.167 1114.67,481.833 1114,461.5C 1112.02,459.261 1109.52,457.928 1106.5,457.5C 1115.83,456.167 1125.17,456.167 1134.5,457.5C 1130.77,457.79 1127.93,459.457 1126,462.5C 1125.67,482.5 1125.33,502.5 1125,522.5C 1121.75,536.745 1112.92,545.245 1098.5,548C 1086.59,549.353 1074.93,548.353 1063.5,545C 1054.12,540.617 1047.95,533.451 1045,523.5C 1044.67,503.833 1044.33,484.167 1044,464.5C 1043.65,462.152 1042.49,460.319 1040.5,459C 1038.26,458.95 1036.59,458.117 1035.5,456.5 Z"/></g>
<g><path style="opacity:0.96" fill="#000000" d="M 1142.5,456.5 C 1156.52,456.167 1170.52,456.501 1184.5,457.5C 1180.05,458.125 1176.88,460.458 1175,464.5C 1174.5,475.828 1174.33,487.162 1174.5,498.5C 1187.5,498.5 1200.5,498.5 1213.5,498.5C 1213.67,487.495 1213.5,476.495 1213,465.5C 1211.54,460.883 1208.38,458.216 1203.5,457.5C 1217.5,456.167 1231.5,456.167 1245.5,457.5C 1240.75,457.784 1237.58,460.117 1236,464.5C 1235.33,489.167 1235.33,513.833 1236,538.5C 1237.88,542.542 1241.05,544.875 1245.5,545.5C 1231.5,546.833 1217.5,546.833 1203.5,545.5C 1208.38,544.784 1211.54,542.117 1213,537.5C 1213.5,526.839 1213.67,516.172 1213.5,505.5C 1200.5,505.5 1187.5,505.5 1174.5,505.5C 1174.33,516.505 1174.5,527.505 1175,538.5C 1176.88,542.542 1180.05,544.875 1184.5,545.5C 1170.5,546.833 1156.5,546.833 1142.5,545.5C 1147.82,544.675 1150.99,541.675 1152,536.5C 1152.67,513.167 1152.67,489.833 1152,466.5C 1151.67,465.167 1151.33,463.833 1151,462.5C 1148.26,460.073 1145.42,458.073 1142.5,456.5 Z"/></g>
</svg>
